<svg width="25" height="24" viewBox="0 0 25 24" fill="none" xmlns="http://www.w3.org/2000/svg">
<mask id="mask0_6391_8831" style="mask-type:alpha" maskUnits="userSpaceOnUse" x="0" y="0" width="25" height="24">
<rect x="0.5" width="24" height="24" fill="#D9D9D9"/>
</mask>
<g mask="url(#mask0_6391_8831)">
<path d="M12.4137 21.6958C10.1804 21.6958 8.2887 20.9208 6.7387 19.3708C5.1887 17.8208 4.4137 15.9291 4.4137 13.6958C4.4137 11.8125 4.97203 10.0041 6.0887 8.27081C7.20536 6.53747 8.7387 5.02081 10.6887 3.72081C11.0554 3.47081 11.4345 3.45831 11.8262 3.68331C12.2179 3.90831 12.4137 4.24581 12.4137 4.69581V5.99581C12.4137 6.56247 12.6095 7.03747 13.0012 7.42081C13.3929 7.80414 13.872 7.99581 14.4387 7.99581C14.722 7.99581 14.9929 7.93331 15.2512 7.80831C15.5095 7.68331 15.7387 7.50414 15.9387 7.27081C16.072 7.10414 16.2429 6.99997 16.4512 6.95831C16.6595 6.91664 16.8554 6.96247 17.0387 7.09581C18.0887 7.84581 18.9137 8.80414 19.5137 9.97081C20.1137 11.1375 20.4137 12.3791 20.4137 13.6958C20.4137 15.9291 19.6387 17.8208 18.0887 19.3708C16.5387 20.9208 14.647 21.6958 12.4137 21.6958ZM6.4137 13.6958C6.4137 14.5625 6.5887 15.3833 6.9387 16.1583C7.2887 16.9333 7.7887 17.6125 8.4387 18.1958C8.42203 18.1125 8.4137 18.0375 8.4137 17.9708V17.7458C8.4137 17.2125 8.5137 16.7125 8.7137 16.2458C8.9137 15.7791 9.20536 15.3541 9.5887 14.9708L12.4137 12.1958L15.2387 14.9708C15.622 15.3541 15.9137 15.7791 16.1137 16.2458C16.3137 16.7125 16.4137 17.2125 16.4137 17.7458V17.9708C16.4137 18.0375 16.4054 18.1125 16.3887 18.1958C17.0387 17.6125 17.5387 16.9333 17.8887 16.1583C18.2387 15.3833 18.4137 14.5625 18.4137 13.6958C18.4137 12.8625 18.2595 12.075 17.9512 11.3333C17.6429 10.5916 17.197 9.92914 16.6137 9.34581C16.2804 9.56247 15.9304 9.72497 15.5637 9.83331C15.197 9.94164 14.822 9.99581 14.4387 9.99581C13.4054 9.99581 12.5095 9.65414 11.7512 8.97081C10.9929 8.28747 10.5554 7.44581 10.4387 6.44581C9.1387 7.54581 8.14286 8.71664 7.4512 9.95831C6.75953 11.2 6.4137 12.4458 6.4137 13.6958ZM12.4137 14.9958L10.9887 16.3958C10.8054 16.5791 10.6637 16.7875 10.5637 17.0208C10.4637 17.2541 10.4137 17.4958 10.4137 17.7458C10.4137 18.2791 10.6095 18.7375 11.0012 19.1208C11.3929 19.5041 11.8637 19.6958 12.4137 19.6958C12.9637 19.6958 13.4345 19.5041 13.8262 19.1208C14.2179 18.7375 14.4137 18.2791 14.4137 17.7458C14.4137 17.4791 14.3637 17.2333 14.2637 17.0083C14.1637 16.7833 14.022 16.5791 13.8387 16.3958L12.4137 14.9958Z" fill="#610BEF"/>
</g>
</svg>
