<svg width="24" height="25" viewBox="0 0 24 25" fill="none" xmlns="http://www.w3.org/2000/svg">
<path d="M6.38679 2.79289C5.99627 2.40237 5.3631 2.40237 4.97258 2.79289C4.58206 3.18342 4.58206 3.81658 4.97258 4.20711L6.38679 2.79289ZM20.9726 20.2071C21.3631 20.5976 21.9963 20.5976 22.3868 20.2071C22.7773 19.8166 22.7773 19.1834 22.3868 18.7929L20.9726 20.2071ZM1.33497 14.3124L2.2022 13.8145L1.33497 14.3124ZM1.33497 11.8004L0.467735 11.3025L1.33497 11.8004ZM22.0246 11.8003L21.1573 12.2982V12.2982L22.0246 11.8003ZM21.3042 13.463C21.1567 13.9953 21.4685 14.5463 22.0007 14.6939C22.533 14.8414 23.084 14.5296 23.2316 13.9974L21.3042 13.463ZM15.326 4.67097C14.8039 4.49091 14.2347 4.7682 14.0546 5.29031C13.8746 5.81242 14.1519 6.38164 14.674 6.5617L15.326 4.67097ZM20.341 18.2009C20.7281 17.807 20.7226 17.1739 20.3288 16.7867C19.9349 16.3996 19.3017 16.4051 18.9146 16.7989L20.341 18.2009ZM8.20014 6.74391C8.71183 6.53607 8.95814 5.95278 8.7503 5.4411C8.54246 4.92941 7.95917 4.6831 7.44748 4.89094L8.20014 6.74391ZM4.97258 4.20711L20.9726 20.2071L22.3868 18.7929L6.38679 2.79289L4.97258 4.20711ZM11.6798 20.0564C7.89339 20.0564 4.42466 17.6854 2.2022 13.8145L0.467746 14.8103C2.94527 19.1255 6.99415 22.0564 11.6798 22.0564V20.0564ZM0.467735 11.3025C-0.155916 12.3887 -0.155911 13.7241 0.467746 14.8103L2.2022 13.8145C1.9326 13.3449 1.9326 12.7679 2.2022 12.2983L0.467735 11.3025ZM21.1573 12.2982C21.3626 12.6557 21.4117 13.0756 21.3042 13.463L23.2316 13.9974C23.4799 13.1014 23.3668 12.1297 22.8918 11.3024L21.1573 12.2982ZM14.674 6.5617C17.2514 7.45054 19.5394 9.48022 21.1573 12.2982L22.8918 11.3024C21.0834 8.15274 18.4478 5.74756 15.326 4.67097L14.674 6.5617ZM18.9146 16.7989C16.8801 18.8688 14.367 20.0564 11.6798 20.0564V22.0564C14.9897 22.0564 17.9956 20.5871 20.341 18.2009L18.9146 16.7989ZM2.2022 12.2983C3.71737 9.65924 5.82167 7.71003 8.20014 6.74391L7.44748 4.89094C4.58162 6.05503 2.16221 8.35113 0.467735 11.3025L2.2022 12.2983ZM13.6194 12.5689C13.7252 12.9901 13.6911 13.4343 13.5221 13.8344L15.3646 14.6125C15.7025 13.8123 15.7708 12.9238 15.559 12.0814L13.6194 12.5689ZM13.5221 13.8344C13.3532 14.2345 13.0586 14.5688 12.6828 14.7866L13.686 16.5169C14.4375 16.0812 15.0267 15.4127 15.3646 14.6125L13.5221 13.8344ZM12.6828 14.7866C12.3071 15.0045 11.8707 15.0941 11.4395 15.0419L11.1993 17.0274C12.0616 17.1318 12.9345 16.9525 13.686 16.5169L12.6828 14.7866ZM11.4395 15.0419C11.0083 14.9898 10.6058 14.7987 10.2929 14.4975L8.90609 15.9386C9.53199 16.5409 10.3369 16.9231 11.1993 17.0274L11.4395 15.0419ZM10.2929 14.4975C9.97994 14.1964 9.77353 13.8015 9.70485 13.3727L7.73001 13.6889C7.86737 14.5466 8.28019 15.3363 8.90609 15.9386L10.2929 14.4975ZM9.70485 13.3727C9.63617 12.9438 9.70896 12.5042 9.91222 12.1204L8.14475 11.1844C7.73824 11.9521 7.59266 12.8312 7.73001 13.6889L9.70485 13.3727ZM9.91222 12.1204C10.1155 11.7366 10.4381 11.4294 10.8315 11.2452L9.98325 9.43395C9.19661 9.80235 8.55126 10.4168 8.14475 11.1844L9.91222 12.1204ZM10.8315 11.2452C11.2248 11.061 11.6674 11.0098 12.0924 11.0994L12.505 9.14247C11.6551 8.96324 10.7699 9.06556 9.98325 9.43395L10.8315 11.2452Z" fill="#14142B"/>
</svg>
